<svg width="48" height="48" viewBox="0 0 48 48" fill="none" xmlns="http://www.w3.org/2000/svg">
<g clip-path="url(#clip0_0_712)">
<rect x="2.00012" y="2" width="44" height="44" rx="10" fill="url(#paint0_linear_0_712)"/>
<g clip-path="url(#clip1_0_712)">
<path fill-rule="evenodd" clip-rule="evenodd" d="M37.001 30.3563C39.3477 30.3563 41.2501 32.2455 41.2501 34.5759C41.2501 36.9063 39.3477 38.7955 37.001 38.7955C34.6543 38.7955 32.7519 36.9063 32.7519 34.5759C32.7519 32.2455 34.6543 30.3563 37.001 30.3563ZM20.3749 14.9132L20.4958 14.9457L26.6875 17.41C28.4564 17.223 29.8294 17.1527 30.8064 17.1992L30.6346 17.3403C32.4666 15.7578 34.009 16.1326 34.009 16.1326C35.9626 18.0621 34.4204 19.2336 34.4204 19.2336L33.5788 19.8517C34.3608 21.5895 35.1703 21.682 37.9826 24.6634C39.1998 25.9537 40.0339 27.2177 40.485 28.4555L40.6089 28.8261C40.72 29.1918 40.5136 29.5783 40.1479 29.6895C39.9735 29.7425 39.7853 29.7245 39.6241 29.6396C37.8347 28.6969 36.1002 28.6309 34.4204 29.4416C32.4935 30.3715 31.4385 31.9505 31.2552 34.1787C31.2317 34.466 30.9917 34.6871 30.7034 34.6871H23.8379C22.2536 34.6871 20.6791 34.4398 19.1711 33.9542L18.2231 33.6481C18.2906 33.9466 18.3261 34.2571 18.3261 34.5759C18.3261 36.9063 16.4238 38.7955 14.077 38.7955C11.7303 38.7955 9.82792 36.9063 9.82792 34.5759C9.82792 33.3145 10.3853 32.1824 11.2688 31.4091L9.33189 30.786C8.69341 30.5804 8.2816 29.9609 8.33909 29.2926C8.59848 26.2769 9.07352 24.5435 9.76419 24.0927C10.347 23.7122 12.9563 23.7261 17.5921 24.1344C16.8878 23.4576 16.6428 22.5434 16.8568 21.3928C17.5042 19.2519 18.5003 17.1705 19.8453 15.1488C19.9633 14.9714 20.1714 14.8831 20.3749 14.9132ZM37.001 32.7675C35.9953 32.7675 35.18 33.5771 35.18 34.5759C35.18 35.5746 35.9953 36.3843 37.001 36.3843C38.0067 36.3843 38.8221 35.5746 38.8221 34.5759C38.8221 33.5771 38.0067 32.7675 37.001 32.7675ZM14.077 32.7675C13.0713 32.7675 12.256 33.5771 12.256 34.5759C12.256 35.5746 13.0713 36.3843 14.077 36.3843C15.0828 36.3843 15.8981 35.5746 15.8981 34.5759C15.8981 33.5771 15.0828 32.7675 14.077 32.7675ZM23.4884 18.9519L22.1982 21.879C22.674 22.3365 23.6101 22.7285 25.0064 23.0551C26.3206 23.3624 26.8279 24.1403 26.5283 25.389L26.4626 25.6286L24.682 30.8769C24.725 30.8798 24.7687 30.8813 24.8131 30.8813L25.4627 30.8803C27.7553 30.8689 27.8843 30.7256 29.4962 28.9349C31.0328 27.2279 31.1755 22.6988 30.7766 19.7941C30.5772 19.8702 30.3778 19.9103 30.1773 19.9164L29.9844 19.9118L25.6715 20.2055L23.4884 18.9519ZM22.2148 25.5612L22.3314 25.7323C22.5407 26.0769 22.6783 26.4694 22.7246 26.8885L23.1292 25.5919C22.8126 25.5878 22.5077 25.5775 22.2148 25.5612ZM10.0543 13.6598L10.0551 16.6285H11.9742L11.9737 13.6598L13.9466 13.6599C14.7415 13.6599 15.3859 14.3043 15.3859 15.0993V20.7337C15.3859 21.5287 14.7415 22.1731 13.9466 22.1731H8.18943C7.39452 22.1731 6.75012 21.5287 6.75012 20.7337V15.0993C6.75012 14.3043 7.39452 13.6599 8.18943 13.6599L10.0543 13.6598ZM22.7686 9L23.0843 9.01742L23.3208 9.04891C24.483 9.24714 25.405 10.0573 25.6728 11.1144L25.72 11.3446L24.2135 11.5136L24.132 11.533C24.0295 11.571 23.9545 11.6552 23.9347 11.7547L23.9305 11.8318L23.9755 12.3361L23.9955 12.4297C24.0266 12.5198 24.0897 12.5979 24.1743 12.6514L24.2658 12.6961L25.8973 13.2883L25.9616 13.3221C26.0134 13.3619 26.0432 13.4239 26.0416 13.4887L26.0291 13.5537L25.5144 14.7641L25.472 14.8369C25.3877 14.9467 25.2401 14.9972 25.1003 14.9556L24.8932 14.8937L24.6903 14.8328L23.5627 14.4863L22.8961 14.2736L22.0241 13.9819L21.5281 13.8058L21.1002 13.6443L20.7405 13.4974L20.449 13.3651C20.1916 13.2401 20.0365 13.1371 19.9837 13.056C19.6708 12.5756 19.5174 12.0205 19.5447 11.4577C19.5798 10.701 20.0059 10.0008 20.6907 9.57299C21.2187 9.24302 21.8276 9.04995 22.4542 9.0082L22.7686 9Z" fill="url(#paint1_linear_0_712)"/>
</g>
</g>
<defs>
<linearGradient id="paint0_linear_0_712" x1="24.0001" y1="2" x2="24.0001" y2="46" gradientUnits="userSpaceOnUse">
<stop stop-color="#00FF89"/>
<stop offset="1" stop-color="#00B964"/>
</linearGradient>
<linearGradient id="paint1_linear_0_712" x1="24.0001" y1="9" x2="24.0001" y2="38.7955" gradientUnits="userSpaceOnUse">
<stop offset="0.642919" stop-color="white"/>
<stop offset="1" stop-color="#6EF7B7"/>
</linearGradient>
<clipPath id="clip0_0_712">
<rect width="48" height="48" fill="white"/>
</clipPath>
<clipPath id="clip1_0_712">
<rect width="36" height="36" fill="white" transform="translate(6.00012 6)"/>
</clipPath>
</defs>
</svg>
