<svg width="48" height="48" viewBox="0 0 48 48" fill="none" xmlns="http://www.w3.org/2000/svg">
<g clip-path="url(#clip0_0_670)">
<rect x="2" y="2" width="44" height="44" rx="10" fill="url(#paint0_linear_0_670)"/>
<path fill-rule="evenodd" clip-rule="evenodd" d="M33.375 9C35.0988 9 36.5 10.4025 36.5 12.125L36.5 17.8128C37.9251 18.1032 39 19.3663 39 20.875V22.125C39 23.1588 38.1588 24 37.125 24L36.4983 23.9983L36.5 33.375C36.5 34.883 35.4259 36.1458 34.0017 36.4369L34 37.125C34 38.1588 33.1588 39 32.125 39H29.625C28.5912 39 27.75 38.1588 27.75 37.125V36.4983H20.25V37.125C20.25 38.0899 19.5172 38.887 18.579 38.989L18.375 39H15.8749C14.8412 39 13.9999 38.1588 13.9999 37.125L13.9983 36.4369C12.5741 36.1458 11.5 34.883 11.5 33.375L11.5 23.9983L10.875 24C9.91015 24 9.11302 23.2672 9.01102 22.329L9 22.125V20.875C9 19.3663 10.0749 18.1032 11.5 17.8128L11.5 12.125C11.5 10.4025 12.9012 9 14.625 9H33.375ZM17.125 29C16.0913 29 15.25 29.8412 15.25 30.875C15.25 31.9087 16.0913 32.75 17.125 32.75C18.1587 32.75 19 31.9087 19 30.875C19 29.8412 18.1588 29 17.125 29ZM30.875 29C29.8412 29 29 29.8412 29 30.875C29 31.9087 29.8412 32.75 30.875 32.75C31.9087 32.75 32.75 31.9087 32.75 30.875C32.75 29.8412 31.9087 29 30.875 29ZM32.125 16.5H15.875C14.8412 16.5 14 17.3412 14 18.375V24.625C14 25.6588 14.8412 26.5 15.875 26.5H32.125C33.1588 26.5 34 25.6588 34 24.625V18.375C34 17.3412 33.1587 16.5 32.125 16.5ZM30.875 11.5H17.125C16.0913 11.5 15.25 12.3413 15.25 13.375C15.25 14.4088 16.0913 15.25 17.125 15.25H30.875C31.9088 15.25 32.75 14.4088 32.75 13.375C32.75 12.3413 31.9088 11.5 30.875 11.5Z" fill="url(#paint1_linear_0_670)"/>
</g>
<defs>
<linearGradient id="paint0_linear_0_670" x1="24" y1="2" x2="24" y2="46" gradientUnits="userSpaceOnUse">
<stop stop-color="#FF9E9C"/>
<stop offset="1" stop-color="#F80400"/>
</linearGradient>
<linearGradient id="paint1_linear_0_670" x1="24" y1="9" x2="24" y2="39" gradientUnits="userSpaceOnUse">
<stop offset="0.677083" stop-color="white"/>
<stop offset="1" stop-color="#FF9D9B"/>
</linearGradient>
<clipPath id="clip0_0_670">
<rect width="48" height="48" fill="white"/>
</clipPath>
</defs>
</svg>
