<svg width="44" height="46" viewBox="0 0 44 46" fill="none" xmlns="http://www.w3.org/2000/svg">
<rect width="44" height="44" rx="10" fill="url(#paint0_linear_10_84)"/>
<g filter="url(#filter0_dd_10_84)">
<path fill-rule="evenodd" clip-rule="evenodd" d="M16.4222 28.0159L16.5185 28.079L20.9808 31.659C21.0948 31.7504 21.1706 31.8793 21.1964 32.0207L21.2062 32.1287V36.3977C21.2062 36.5294 21.163 36.6575 21.0833 36.7623C20.9071 36.9939 20.5958 37.0623 20.3433 36.9408L20.2393 36.8771L12.2165 30.7756C12.1419 30.719 12.0816 30.6457 12.0404 30.5616C11.9101 30.2962 11.993 29.9816 12.2228 29.812L12.3157 29.7556L15.8763 28.0082C16.051 27.9224 16.254 27.9273 16.4222 28.0159ZM28.404 28.0082L31.9646 29.7556C32.2632 29.9021 32.3864 30.263 32.2399 30.5616C32.1986 30.6457 32.1383 30.719 32.0638 30.7756L24.041 36.8771C23.7762 37.0784 23.3983 37.027 23.197 36.7623C23.1173 36.6575 23.0741 36.5294 23.0741 36.3977V32.1287C23.0741 31.9461 23.157 31.7733 23.2995 31.659L27.7618 28.079C27.944 27.9329 28.1943 27.9052 28.404 28.0082ZM22.3747 14.3985L22.4802 14.4745L27.8562 19.145C28.0121 19.2805 28.0996 19.4758 28.1 19.6785L28.0896 19.8006L26.9776 26.229C26.9556 26.356 26.8996 26.4738 26.8165 26.5703L26.7248 26.6593L22.4878 30.0836C22.2574 30.2698 21.94 30.2906 21.6903 30.1475L21.5879 30.0761L17.4925 26.6513C17.369 26.548 17.2844 26.4057 17.2525 26.2478C16.7928 23.9675 16.3332 21.6873 15.8735 19.407C17.766 17.7628 19.6584 16.1186 21.5509 14.4745C21.7841 14.2719 22.1167 14.2465 22.3747 14.3985ZM9.93854 17.9707L10.0442 17.996L13.7428 19.2398C13.9144 19.2975 14.049 19.4285 14.1128 19.5939L14.1423 19.6971L15.3207 25.8331C15.3647 26.0619 15.2726 26.2916 15.0916 26.4278L14.994 26.4877L11.4576 28.2181C11.4018 28.2454 11.3421 28.264 11.2806 28.273C10.9881 28.316 10.7138 28.1411 10.6224 27.8705L10.597 27.7648L9.25642 18.6546C9.2426 18.5607 9.25117 18.4649 9.28141 18.3749C9.37565 18.0947 9.65598 17.9295 9.93854 17.9707ZM34.7195 18.3749C34.7498 18.4649 34.7584 18.5607 34.7445 18.6546L33.4039 27.7648C33.3555 28.0939 33.0495 28.3214 32.7204 28.273C32.6589 28.264 32.5992 28.2454 32.5433 28.2181L29.007 26.4877C28.7629 26.3682 28.629 26.1 28.6802 25.8331L29.8586 19.6971C29.8996 19.4838 30.0523 19.309 30.2581 19.2398L33.9567 17.996C34.272 17.89 34.6135 18.0597 34.7195 18.3749ZM21.8457 17.7771C21.5915 17.4988 21.1598 17.4793 20.8815 17.7335L18.1936 20.1889L18.1125 20.2773C17.9917 20.4346 17.9442 20.6389 17.9868 20.8366L18.7676 24.4575L18.8042 24.5751C18.9278 24.8741 19.251 25.0514 19.5785 24.9808L19.6961 24.9442C19.9952 24.8206 20.1724 24.4973 20.1018 24.1698L19.4025 20.9307L21.8021 18.7412L21.8853 18.6504C22.0813 18.393 22.0716 18.0244 21.8457 17.7771ZM21.0952 7.2287C21.1793 7.33506 21.225 7.46669 21.225 7.6023V12.225C21.225 12.4019 21.1472 12.57 21.0122 12.6844L15.1397 17.6623C14.9752 17.8017 14.7487 17.8426 14.5458 17.7694L10.2423 16.2165C9.92945 16.1036 9.76733 15.7585 9.88023 15.4456C9.91831 15.34 9.98513 15.2472 10.0732 15.1776L20.2492 7.1299C20.5101 6.92357 20.8888 6.9678 21.0952 7.2287ZM23.8624 7.0642L23.9652 7.1299L34.1104 15.1532C34.2033 15.2267 34.2724 15.3258 34.3092 15.4383C34.4012 15.7193 34.2752 16.0193 34.0241 16.1551L33.9242 16.198L29.3178 17.7056C29.1553 17.7588 28.98 17.7399 28.8344 17.6577L28.7314 17.5843L23.1926 12.6838C23.0892 12.5923 23.0212 12.4689 22.9981 12.3349L22.9894 12.2327V7.6023C22.9894 7.46669 23.0351 7.33506 23.1192 7.2287C23.2998 7.00042 23.6123 6.93801 23.8624 7.0642Z" fill="url(#paint1_linear_10_84)"/>
</g>
<defs>
<filter id="filter0_dd_10_84" x="-2.66667" y="1.33333" width="49.3333" height="50.6667" filterUnits="userSpaceOnUse" color-interpolation-filters="sRGB">
<feFlood flood-opacity="0" result="BackgroundImageFix"/>
<feColorMatrix in="SourceAlpha" type="matrix" values="0 0 0 0 0 0 0 0 0 0 0 0 0 0 0 0 0 0 127 0" result="hardAlpha"/>
<feOffset dy="2.66667"/>
<feGaussianBlur stdDeviation="2.66667"/>
<feColorMatrix type="matrix" values="0 0 0 0 0 0 0 0 0 0 0 0 0 0 0 0 0 0 0.08 0"/>
<feBlend mode="normal" in2="BackgroundImageFix" result="effect1_dropShadow_10_84"/>
<feColorMatrix in="SourceAlpha" type="matrix" values="0 0 0 0 0 0 0 0 0 0 0 0 0 0 0 0 0 0 127 0" result="hardAlpha"/>
<feOffset dy="5.33333"/>
<feGaussianBlur stdDeviation="3.33333"/>
<feColorMatrix type="matrix" values="0 0 0 0 0 0 0 0 0 0 0 0 0 0 0 0 0 0 0.04 0"/>
<feBlend mode="normal" in2="effect1_dropShadow_10_84" result="effect2_dropShadow_10_84"/>
<feBlend mode="normal" in="SourceGraphic" in2="effect2_dropShadow_10_84" result="shape"/>
</filter>
<linearGradient id="paint0_linear_10_84" x1="22" y1="0" x2="22" y2="44" gradientUnits="userSpaceOnUse">
<stop stop-color="#FFE05C"/>
<stop offset="1" stop-color="#FAB300"/>
</linearGradient>
<linearGradient id="paint1_linear_10_84" x1="22.0005" y1="7" x2="22.0005" y2="37" gradientUnits="userSpaceOnUse">
<stop offset="0.609375" stop-color="white"/>
<stop offset="1" stop-color="#FBE35C"/>
</linearGradient>
</defs>
</svg>
