<svg width="48" height="48" viewBox="0 0 48 48" fill="none" xmlns="http://www.w3.org/2000/svg">
<g clip-path="url(#clip0_0_628)">
<rect x="2.00018" y="2" width="44" height="44" rx="10" fill="url(#paint0_linear_0_628)"/>
<path fill-rule="evenodd" clip-rule="evenodd" d="M14.8701 9.75C15.6268 9.75 16.2504 10.3147 16.3356 11.0423L16.3455 11.2129V12.3028C16.3455 13.1108 15.685 13.7657 14.8701 13.7657C14.2566 13.7657 13.728 13.3935 13.5061 12.8616L13.449 12.6974L13.4437 12.6751L12.7586 12.6758L12.7296 12.6837L12.7089 12.7042L12.701 12.733L12.6981 17.0938C12.6973 17.0975 12.6961 17.0991 12.6943 17.1016L12.701 17.2358C12.701 20.4556 14.8986 22.7708 17.9362 22.7708C20.9561 22.7708 23.1475 20.4824 23.1715 17.306L23.1714 12.7325C23.1714 12.7119 23.1598 12.6936 23.1427 12.6837L23.1138 12.6758L22.3828 12.6751L22.3808 12.6956C22.2279 13.3419 21.6429 13.8231 20.9444 13.8231C20.1877 13.8231 19.5641 13.2584 19.4789 12.5308L19.469 12.3601V11.2129C19.469 10.4626 20.0385 9.84434 20.7723 9.75984L20.9444 9.75H23.1138C24.6975 9.75 25.9989 10.969 26.1139 12.5107L26.1222 12.7331V17.2358C26.1222 19.4746 25.3717 21.5268 23.998 23.0561L23.7332 23.3367L23.6252 23.4406L23.5719 23.4813C23.5652 23.485 23.5598 23.4868 23.556 23.4865L23.4686 23.6298L19.4105 29.4666L19.4116 32.6657C19.4116 34.7886 21.0248 36.5454 23.0993 36.794L23.3504 36.8166L23.6055 36.8242C25.8038 36.8242 27.7502 35.25 27.7858 33.0016L27.7502 16.26C27.7502 13.4971 29.9973 11.25 32.7602 11.25C35.431 11.25 37.6198 13.3498 37.7628 15.9855L37.7702 16.26L37.7694 23.9175L37.8042 23.9315C39.0247 24.4625 39.8896 25.5937 40.0762 26.9141L40.1044 27.1806L40.1139 27.4514C40.1139 29.5681 38.3925 31.2895 36.2758 31.2895C34.1591 31.2895 32.4377 29.5681 32.4377 27.4514C32.4377 25.9969 33.2584 24.6954 34.5081 24.0456L34.7814 23.9175V16.26C34.7814 15.2769 34.0752 14.4551 33.1437 14.2753L32.9545 14.248L32.7602 14.2388C31.7116 14.2388 30.8464 15.0423 30.7482 16.0657L30.7389 16.26L30.7382 26.25H30.7502V33C30.7502 36.75 27.4324 39.75 23.6055 39.75C19.772 39.75 16.6345 36.7418 16.4678 32.9809L16.4608 32.6657L16.4604 29.5371L12.3548 23.6302L12.2843 23.5147L12.2747 23.483L12.1928 23.3906L12.1393 23.3368C10.6881 21.874 9.85226 19.8675 9.75895 17.6533L9.75018 17.2358C9.75172 17.1645 9.75172 17.1645 9.75688 17.158L9.75145 17.0764L9.75018 12.733C9.75018 11.1626 10.9796 9.87226 12.5344 9.7582L12.7586 9.75H14.8701ZM36.3752 26.4C35.7553 26.4 35.2502 26.9051 35.2502 27.525C35.2502 28.1449 35.7553 28.65 36.3752 28.65C36.9951 28.65 37.5002 28.1449 37.5002 27.525C37.5002 26.9051 36.9951 26.4 36.3752 26.4ZM16.0502 24.8719L17.9598 27.6426L19.8594 24.8863L19.1298 24.9908L18.7515 25.0359C18.498 25.0599 18.2422 25.072 17.9847 25.072C17.7154 25.072 17.4476 25.0587 17.1822 25.0322L16.786 24.9827L16.0502 24.8719Z" fill="url(#paint1_linear_0_628)"/>
</g>
<defs>
<linearGradient id="paint0_linear_0_628" x1="24.0002" y1="2" x2="24.0002" y2="46" gradientUnits="userSpaceOnUse">
<stop stop-color="#B5E3FC"/>
<stop offset="1" stop-color="#58C0F9"/>
</linearGradient>
<linearGradient id="paint1_linear_0_628" x1="24.9321" y1="9.75" x2="24.9321" y2="39.75" gradientUnits="userSpaceOnUse">
<stop offset="0.614583" stop-color="white"/>
<stop offset="1" stop-color="#B5E3FC"/>
</linearGradient>
<clipPath id="clip0_0_628">
<rect width="48" height="48" fill="white"/>
</clipPath>
</defs>
</svg>
