<svg width="48" height="48" viewBox="0 0 48 48" fill="none" xmlns="http://www.w3.org/2000/svg">
<g clip-path="url(#clip0_0_614)">
<rect x="2.00018" y="2" width="44" height="44" rx="10" fill="url(#paint0_linear_0_614)"/>
<path fill-rule="evenodd" clip-rule="evenodd" d="M22.1709 10.5C22.9758 10.5 23.6343 11.1585 23.6343 11.9634V20.7439C23.6343 23.5762 22.0384 25.4429 18.8464 26.3441C18.216 26.5221 17.7806 27.0974 17.7807 27.7525V36.8415C17.7807 37.6463 17.1221 38.3049 16.3173 38.3049C15.5124 38.3049 14.8538 37.6463 14.8538 36.8415V27.7525C14.8538 27.0974 14.4185 26.5221 13.788 26.3441C10.5961 25.4429 9.00018 23.5762 9.00018 20.7439V11.9634C9.00018 11.1585 9.65872 10.5 10.4636 10.5C11.2685 10.5 11.927 11.1585 11.927 11.9634V20.7439H14.8538V11.9634C14.8538 11.1585 15.5124 10.5 16.3173 10.5C17.1221 10.5 17.7807 11.1585 17.7807 11.9634V20.7439H20.7075V11.9634C20.7075 11.1585 21.366 10.5 22.1709 10.5ZM32.4148 10.5C37.1111 10.5 39.0002 16.2987 39.0002 19.2805L38.9951 20.7439C38.9983 23.3687 37.5107 25.6696 34.5324 27.6465C34.1238 27.9176 33.8782 28.3754 33.8782 28.8657V36.8415C33.8782 37.6497 33.223 38.3049 32.4148 38.3049C31.6066 38.3049 30.9514 37.6497 30.9514 36.8415V28.9072C30.9514 28.3969 30.6856 27.9235 30.25 27.6578C27.303 25.8604 25.83 23.5558 25.8309 20.7439L25.8295 19.2805C25.8295 16.2987 27.7185 10.5 32.4148 10.5Z" fill="url(#paint1_linear_0_614)"/>
</g>
<defs>
<linearGradient id="paint0_linear_0_614" x1="24.0002" y1="2" x2="24.0002" y2="46" gradientUnits="userSpaceOnUse">
<stop stop-color="#FF94D1"/>
<stop offset="1" stop-color="#F340A7"/>
</linearGradient>
<linearGradient id="paint1_linear_0_614" x1="24.0002" y1="10.5" x2="24.0002" y2="38.3049" gradientUnits="userSpaceOnUse">
<stop offset="0.619792" stop-color="white"/>
<stop offset="1" stop-color="#FF94D1"/>
</linearGradient>
<clipPath id="clip0_0_614">
<rect width="48" height="48" fill="white"/>
</clipPath>
</defs>
</svg>
