<svg width="48" height="48" viewBox="0 0 48 48" fill="none" xmlns="http://www.w3.org/2000/svg">
<g clip-path="url(#clip0_0_684)">
<rect x="2.00018" y="2" width="44" height="44" rx="10" fill="url(#paint0_linear_0_684)"/>
<path fill-rule="evenodd" clip-rule="evenodd" d="M22.6502 11.175C24.1414 11.175 25.3502 12.3838 25.3502 13.875V17.925H33.4502C34.9414 17.925 36.1502 19.1338 36.1502 20.625V34.125L36.3076 34.1341C36.979 34.2121 37.5002 34.7827 37.5002 35.475V36.825H10.5002V35.475C10.5002 34.7294 11.1046 34.125 11.8502 34.125V13.875C11.8502 12.3838 13.059 11.175 14.5502 11.175H22.6502ZM21.3002 27.375C20.5546 27.375 19.9502 27.9794 19.9502 28.725V34.125H22.6502V28.725C22.6502 27.9794 22.0458 27.375 21.3002 27.375ZM26.7002 27.375C25.9546 27.375 25.3502 27.9794 25.3502 28.725V34.125H28.0502V28.725C28.0502 27.9794 27.4458 27.375 26.7002 27.375ZM15.9002 27.375C15.1546 27.375 14.5502 27.9794 14.5502 28.725V30.075C14.5502 30.8206 15.1546 31.425 15.9002 31.425C16.6458 31.425 17.2502 30.8206 17.2502 30.075V28.725C17.2502 27.9794 16.6458 27.375 15.9002 27.375ZM32.1002 27.375C31.3546 27.375 30.7502 27.9794 30.7502 28.725V30.075C30.7502 30.8206 31.3546 31.425 32.1002 31.425C32.8458 31.425 33.4502 30.8206 33.4502 30.075V28.725C33.4502 27.9794 32.8458 27.375 32.1002 27.375ZM15.9002 20.625C15.1546 20.625 14.5502 21.2294 14.5502 21.975V23.325C14.5502 24.0706 15.1546 24.675 15.9002 24.675C16.6458 24.675 17.2502 24.0706 17.2502 23.325V21.975C17.2502 21.2294 16.6458 20.625 15.9002 20.625ZM21.3002 20.625C20.5546 20.625 19.9502 21.2294 19.9502 21.975V23.325C19.9502 24.0706 20.5546 24.675 21.3002 24.675C22.0458 24.675 22.6502 24.0706 22.6502 23.325V21.975C22.6502 21.2294 22.0458 20.625 21.3002 20.625ZM26.7002 20.625C25.9546 20.625 25.3502 21.2294 25.3502 21.975V23.325C25.3502 24.0706 25.9546 24.675 26.7002 24.675C27.4458 24.675 28.0502 24.0706 28.0502 23.325V21.975C28.0502 21.2294 27.4458 20.625 26.7002 20.625ZM32.1002 20.625C31.3546 20.625 30.7502 21.2294 30.7502 21.975V23.325C30.7502 24.0706 31.3546 24.675 32.1002 24.675C32.8458 24.675 33.4502 24.0706 33.4502 23.325V21.975C33.4502 21.2294 32.8458 20.625 32.1002 20.625ZM15.9002 13.875C15.1546 13.875 14.5502 14.4794 14.5502 15.225V16.575C14.5502 17.3206 15.1546 17.925 15.9002 17.925C16.6458 17.925 17.2502 17.3206 17.2502 16.575V15.225C17.2502 14.4794 16.6458 13.875 15.9002 13.875ZM21.3002 13.875C20.5546 13.875 19.9502 14.4794 19.9502 15.225V16.575C19.9502 17.3206 20.5546 17.925 21.3002 17.925C22.0458 17.925 22.6502 17.3206 22.6502 16.575V15.225C22.6502 14.4794 22.0458 13.875 21.3002 13.875Z" fill="url(#paint1_linear_0_684)"/>
</g>
<defs>
<linearGradient id="paint0_linear_0_684" x1="24.0002" y1="2" x2="24.0002" y2="46" gradientUnits="userSpaceOnUse">
<stop stop-color="#FF9E9C"/>
<stop offset="1" stop-color="#F80400"/>
</linearGradient>
<linearGradient id="paint1_linear_0_684" x1="24.0002" y1="11.175" x2="24.0002" y2="36.825" gradientUnits="userSpaceOnUse">
<stop offset="0.677083" stop-color="white"/>
<stop offset="1" stop-color="#FF9D9B"/>
</linearGradient>
<clipPath id="clip0_0_684">
<rect width="48" height="48" fill="white"/>
</clipPath>
</defs>
</svg>
