<svg width="48" height="48" viewBox="0 0 48 48" fill="none" xmlns="http://www.w3.org/2000/svg">
<g clip-path="url(#clip0_0_656)">
<rect x="2.00018" y="2" width="44" height="44" rx="10" fill="url(#paint0_linear_0_656)"/>
<path fill-rule="evenodd" clip-rule="evenodd" d="M25.6842 20.443L26.3803 23.4545C24.9166 24.4659 23.7537 25.8817 23.0531 27.5405L21.5195 24.6077L16.4292 29.6979L16.8457 32.6132C16.8827 32.8168 16.8087 33.0204 16.6606 33.1685L16.1146 33.7146C15.8092 34.02 15.2909 33.9459 15.078 33.5665L13.19 30.1607L9.78419 28.2726C9.40474 28.0598 9.3307 27.5415 9.63611 27.2361L10.1822 26.6901C10.3302 26.542 10.5338 26.4679 10.7375 26.505L13.6528 26.9214L18.743 21.8312L10.6727 17.6109C9.84898 17.176 9.69164 16.0746 10.3395 15.4268C10.6727 15.0936 11.1632 14.9548 11.6167 15.0566L22.9077 17.6665L27.9979 12.5763C28.7661 11.8081 30.0063 11.8081 30.7744 12.5763C31.5426 13.3444 31.5426 14.5846 30.7744 15.3527L25.6842 20.443ZM39.6822 31.1958C39.6822 26.8087 36.1128 23.2394 31.7257 23.2394L31.3811 23.2467C27.1533 23.4278 23.7693 26.9242 23.7693 31.1958C23.7693 35.5829 27.3386 39.1522 31.7257 39.1522L32.0703 39.1448C36.2982 38.9638 39.6822 35.4674 39.6822 31.1958ZM25.3649 30.9592C25.4899 27.56 28.2967 24.8307 31.7257 24.8307C31.8391 24.8307 31.9517 24.8336 32.0623 24.8391C32.0583 24.8612 32.0566 24.8839 32.0573 24.9067C32.0602 24.9977 32.1003 25.0838 32.1683 25.1446C32.216 25.187 32.2482 25.2209 32.2701 25.2464L32.315 25.3039C32.3075 25.3198 32.2467 25.4237 31.9074 25.5959L31.7183 25.7012C31.2103 26.0093 30.6898 26.5282 30.6043 27.0658C30.5602 27.3403 30.6399 27.5951 30.8283 27.7835C30.8905 27.8457 30.9746 27.8806 31.0627 27.8806C31.5226 27.8806 31.878 27.7108 32.2218 27.5465L32.223 27.5459L32.4339 27.447C32.7153 27.3197 33.0047 27.2176 33.3833 27.2176C34.6845 27.2176 35.7039 27.509 35.7039 27.8806C35.7039 28.0169 35.6615 28.0587 35.6454 28.0742C35.5232 28.1944 35.1807 28.2186 34.8114 28.2201L33.8715 28.2082C33.6612 28.1982 33.5367 28.1692 33.4361 28.1316L33.1217 27.9936C32.9616 27.932 32.7498 27.8806 32.3888 27.8806C31.8423 27.8806 30.8267 27.9793 30.1653 28.6407C29.6247 29.181 29.6815 29.8272 29.719 30.2549L29.7191 30.2559L29.7312 30.3993L29.7366 30.5327C29.7366 31.1857 30.4039 31.5273 31.0627 31.5273C32.076 31.5273 32.9521 31.7163 33.0518 31.8588C33.0518 32.2298 33.1622 32.4833 33.2509 32.6866L33.3027 32.8088C33.3504 32.9273 33.3833 33.0391 33.3833 33.1848C33.3833 33.335 33.3587 33.3671 33.2923 33.4526L33.2306 33.5369C33.1309 33.6824 33.0518 33.86 33.0518 34.1794C33.0518 34.7502 33.5015 35.3663 33.7069 35.6182L33.8 35.7276C33.8637 35.7981 33.9538 35.837 34.0463 35.837C34.0738 35.837 34.1014 35.8338 34.1286 35.8266C34.3238 35.7765 36.0354 35.3054 36.0354 34.1794C36.0354 33.8266 36.1452 33.7314 36.3115 33.587L36.3116 33.5869L36.3844 33.5225C36.5341 33.3856 36.6985 33.1944 36.6985 32.8533C36.6985 32.5875 37.1702 31.9015 37.6072 31.4182C37.6691 31.3499 37.6998 31.2586 37.6917 31.1666C37.6837 31.0747 37.6377 30.9902 37.5648 30.9338C37.3071 30.7341 36.5955 30.0837 36.3573 29.4527C36.4923 29.5233 36.6613 29.6382 36.7956 29.7726C36.906 29.8836 37.054 29.9367 37.2223 29.9299C37.4265 29.9183 37.6598 29.7928 37.8924 29.6167C38.022 30.1218 38.0909 30.651 38.0909 31.1958C38.0909 34.704 35.234 37.5609 31.7257 37.5609C29.8977 37.5609 28.2464 36.7852 27.0841 35.5458L27.0845 34.8425L27.1005 34.6656C27.1418 34.445 27.258 34.2776 27.3883 34.0899L27.3888 34.0891L27.4737 33.9651C27.6151 33.7527 27.7475 33.5084 27.7475 33.1849C27.7475 32.6676 27.3654 32.5306 27.0584 32.4791L26.7402 32.4388C26.571 32.4165 26.4194 32.3825 26.3243 32.2875C26.2343 32.1975 26.1443 32.034 26.0491 31.8611L25.9511 31.6862C25.8114 31.4446 25.6316 31.176 25.3649 30.9592Z" fill="url(#paint1_linear_0_656)"/>
</g>
<defs>
<linearGradient id="paint0_linear_0_656" x1="24.0002" y1="2" x2="24.0002" y2="46" gradientUnits="userSpaceOnUse">
<stop stop-color="#FF9E9C"/>
<stop offset="1" stop-color="#F80400"/>
</linearGradient>
<linearGradient id="paint1_linear_0_656" x1="24.5644" y1="12.0001" x2="24.5644" y2="39.1522" gradientUnits="userSpaceOnUse">
<stop offset="0.677083" stop-color="white"/>
<stop offset="1" stop-color="#FF9D9B"/>
</linearGradient>
<clipPath id="clip0_0_656">
<rect width="48" height="48" fill="white"/>
</clipPath>
</defs>
</svg>
