<svg width="48" height="48" viewBox="0 0 48 48" fill="none" xmlns="http://www.w3.org/2000/svg">
<rect x="2" y="2" width="44" height="44" rx="10" fill="url(#paint0_linear_10_79)"/>
<g filter="url(#filter0_dd_10_79)">
<path fill-rule="evenodd" clip-rule="evenodd" d="M24.9872 24.5824C25.6904 24.5824 26.2605 25.1525 26.2605 25.8557V34.7267C26.2605 35.4299 25.6904 36 24.9872 36H21.8041C21.1009 36 20.5308 35.4299 20.5308 34.7267V25.8557C20.5308 25.1525 21.1009 24.5824 21.8041 24.5824H24.9872ZM16.4564 28.3149C17.1596 28.3149 17.7297 28.885 17.7297 29.5882V34.7267C17.7297 35.4299 17.1596 36 16.4564 36H13.2733C12.5701 36 12 35.4299 12 34.7267V29.5882C12 28.885 12.5701 28.3149 13.2733 28.3149H16.4564ZM33.5181 20.7202C34.2213 20.7202 34.7913 21.2902 34.7913 21.9934V34.7267C34.7913 35.4299 34.2213 36 33.5181 36H30.3349C29.6317 36 29.0617 35.4299 29.0617 34.7267V21.9934C29.0617 21.2902 29.6317 20.7202 30.3349 20.7202H33.5181ZM28.723 10.505L34.5662 11.3262C34.8448 11.3653 35.0389 11.6229 34.9997 11.9014L34.1785 17.7447C34.1394 18.0232 33.8818 18.2173 33.6033 18.1781C33.4695 18.1593 33.3487 18.0882 33.2674 17.9803L31.7737 15.9967L24.0593 21.48L18.8603 19.7996L15.4938 25.7492L12.6128 24.1186L17.3103 15.8193L23.495 17.8184L29.7785 13.3508L28.2454 11.3158C28.0761 11.0912 28.121 10.7718 28.3456 10.6026C28.4535 10.5213 28.5892 10.4862 28.723 10.505Z" fill="url(#paint1_linear_10_79)"/>
</g>
<defs>
<filter id="filter0_dd_10_79" x="-0.666667" y="3.33333" width="49.3333" height="50.6667" filterUnits="userSpaceOnUse" color-interpolation-filters="sRGB">
<feFlood flood-opacity="0" result="BackgroundImageFix"/>
<feColorMatrix in="SourceAlpha" type="matrix" values="0 0 0 0 0 0 0 0 0 0 0 0 0 0 0 0 0 0 127 0" result="hardAlpha"/>
<feOffset dy="2.66667"/>
<feGaussianBlur stdDeviation="2.66667"/>
<feColorMatrix type="matrix" values="0 0 0 0 0 0 0 0 0 0 0 0 0 0 0 0 0 0 0.08 0"/>
<feBlend mode="normal" in2="BackgroundImageFix" result="effect1_dropShadow_10_79"/>
<feColorMatrix in="SourceAlpha" type="matrix" values="0 0 0 0 0 0 0 0 0 0 0 0 0 0 0 0 0 0 127 0" result="hardAlpha"/>
<feOffset dy="5.33333"/>
<feGaussianBlur stdDeviation="3.33333"/>
<feColorMatrix type="matrix" values="0 0 0 0 0 0 0 0 0 0 0 0 0 0 0 0 0 0 0.04 0"/>
<feBlend mode="normal" in2="effect1_dropShadow_10_79" result="effect2_dropShadow_10_79"/>
<feBlend mode="normal" in="SourceGraphic" in2="effect2_dropShadow_10_79" result="shape"/>
</filter>
<linearGradient id="paint0_linear_10_79" x1="24" y1="2" x2="24" y2="46" gradientUnits="userSpaceOnUse">
<stop stop-color="#96D3FF"/>
<stop offset="1" stop-color="#0091FA"/>
</linearGradient>
<linearGradient id="paint1_linear_10_79" x1="23.5024" y1="10.5" x2="23.5024" y2="36" gradientUnits="userSpaceOnUse">
<stop offset="0.6763" stop-color="white"/>
<stop offset="1" stop-color="#95D3FF"/>
</linearGradient>
</defs>
</svg>
