<svg width="44" height="44" viewBox="0 0 44 44" fill="none" xmlns="http://www.w3.org/2000/svg">
<rect x="0.00012207" width="44" height="44" rx="10" fill="url(#paint0_linear_0_729)"/>
<path fill-rule="evenodd" clip-rule="evenodd" d="M12.3612 27.8555C13.7478 27.8555 14.8718 29.0173 14.8718 30.4505C14.8718 31.8836 13.7478 33.0455 12.3612 33.0455C10.9746 33.0455 9.85053 31.8836 9.85053 30.4505C9.85053 29.0173 10.9746 27.8555 12.3612 27.8555ZM32.1461 27.8221C33.5326 27.8221 34.6567 28.9839 34.6567 30.4171C34.6567 31.8503 33.5326 33.0121 32.1461 33.0121C30.7595 33.0121 29.6354 31.8503 29.6354 30.4171C29.6354 28.9839 30.7595 27.8221 32.1461 27.8221ZM22.2569 10.5094C23.3028 10.5094 24.1506 11.3572 24.1506 12.403V28.536C24.1506 29.5819 23.3028 30.4297 22.2569 30.4297L16.3074 30.4303L16.3074 30.4067C16.3074 28.1546 14.5411 26.3289 12.3621 26.3289C10.1832 26.3289 8.41686 28.1546 8.41686 30.4067L8.41567 30.4293L7.39378 30.4297C6.34794 30.4297 5.50012 29.5819 5.50012 28.536V12.403C5.50012 11.3572 6.34794 10.5094 7.39378 10.5094H22.2569ZM32.3949 14.1183C32.8053 14.1183 33.19 14.3177 33.4265 14.653L38.3222 21.5936C38.4724 21.8065 38.5531 22.0607 38.5531 22.3213V28.536C38.5531 29.5819 37.7052 30.4297 36.6594 30.4297L36.0858 30.429L36.0858 30.422C36.0858 28.1699 34.3194 26.3442 32.1405 26.3442C29.9616 26.3442 28.1952 28.1699 28.1952 30.422L28.1945 30.4285L26.9036 30.4297C26.2064 30.4297 25.6412 29.8645 25.6412 29.1672V16.0119C25.6412 14.9661 26.489 14.1183 27.5349 14.1183H32.3949ZM31.7555 17.084H28.7174C28.4734 17.084 28.2698 17.2571 28.2227 17.4872L28.2124 17.589V21.5726C28.2124 21.8166 28.3855 22.0202 28.6156 22.0673L28.7174 22.0776H34.6005C34.7057 22.0776 34.8083 22.0447 34.894 21.9836C35.0925 21.8417 35.1576 21.5825 35.0622 21.3679L35.0114 21.2791L32.1664 17.2955C32.0716 17.1628 31.9186 17.084 31.7555 17.084Z" fill="url(#paint1_linear_0_729)"/>
<defs>
<linearGradient id="paint0_linear_0_729" x1="22.0001" y1="0" x2="22.0001" y2="44" gradientUnits="userSpaceOnUse">
<stop stop-color="#00FF89"/>
<stop offset="1" stop-color="#00B964"/>
</linearGradient>
<linearGradient id="paint1_linear_0_729" x1="22.0266" y1="10.5094" x2="22.0266" y2="33.0455" gradientUnits="userSpaceOnUse">
<stop offset="0.642919" stop-color="white"/>
<stop offset="1" stop-color="#6EF7B7"/>
</linearGradient>
</defs>
</svg>
