<svg width="48" height="48" viewBox="0 0 48 48" fill="none" xmlns="http://www.w3.org/2000/svg">
<g clip-path="url(#clip0_0_635)">
<rect x="2.00018" y="2" width="44" height="44" rx="10" fill="url(#paint0_linear_0_635)"/>
<path fill-rule="evenodd" clip-rule="evenodd" d="M18.8097 9C17.6315 9 16.6764 9.95513 16.6764 11.1333V12.5989C16.6764 13.7771 17.6315 14.7323 18.8097 14.7323H28.8737C30.0519 14.7323 31.007 13.7771 31.007 12.5989V11.1333C31.007 9.95513 30.0519 9 28.8737 9H18.8097ZM17.3825 17.6618C17.3825 16.9344 17.9722 16.3447 18.6996 16.3447L28.9629 16.3447C29.6904 16.3447 30.2801 16.9344 30.2801 17.6618V19.5766C30.2801 19.7884 30.4091 19.979 30.6058 20.0577C32.5729 20.8445 33.8629 22.7497 33.8629 24.8684L33.8629 25.9114L29.3188 24.2575C27.0876 23.4454 24.6205 24.5958 23.8084 26.827C22.9963 29.0582 24.1468 31.5253 26.3779 32.3373L33.1111 34.788C33.3597 34.8785 33.6111 34.9446 33.8629 34.9876L33.8629 35.856C33.8629 37.3109 32.6835 38.4903 31.2286 38.4903L16.4344 38.4903C14.9795 38.4903 13.8001 37.3109 13.8001 35.856L13.8001 26.0179L13.8001 25.8058C13.8 23.4924 15.0137 21.3487 16.9973 20.1585L17.0628 20.1192C17.2611 20.0002 17.3825 19.7858 17.3825 19.5545V17.6618ZM32.9322 27.0762L35.6255 28.0564C37.1129 28.5978 37.8799 30.2425 37.3385 31.73C36.7971 33.2175 35.1524 33.9844 33.6649 33.443L30.9717 32.4627L32.9322 27.0762ZM28.8902 25.6066L31.5835 26.5869L29.6229 31.9735L26.9296 30.9932C25.4422 30.4518 24.6752 28.8071 25.2166 27.3196C25.758 25.8322 27.4027 25.0653 28.8902 25.6066Z" fill="url(#paint1_linear_0_635)"/>
</g>
<defs>
<linearGradient id="paint0_linear_0_635" x1="24.0002" y1="2" x2="24.0002" y2="46" gradientUnits="userSpaceOnUse">
<stop stop-color="#B5E3FC"/>
<stop offset="1" stop-color="#58C0F9"/>
</linearGradient>
<linearGradient id="paint1_linear_0_635" x1="25.6561" y1="9" x2="25.6561" y2="38.4903" gradientUnits="userSpaceOnUse">
<stop offset="0.614583" stop-color="white"/>
<stop offset="1" stop-color="#B5E3FC"/>
</linearGradient>
<clipPath id="clip0_0_635">
<rect width="48" height="48" fill="white"/>
</clipPath>
</defs>
</svg>
