<svg width="48" height="48" viewBox="0 0 48 48" fill="none" xmlns="http://www.w3.org/2000/svg">
<g clip-path="url(#clip0_0_698)">
<rect x="2.00018" y="2" width="44" height="44" rx="10" fill="url(#paint0_linear_0_698)"/>
<path fill-rule="evenodd" clip-rule="evenodd" d="M25.3447 9C27.83 9 29.8447 11.0147 29.8447 13.5L29.8442 16.3545L31.1719 16.3548C31.5861 16.3548 31.9219 16.6906 31.9219 17.1048C31.9219 17.1208 31.9214 17.1368 31.9204 17.1527L30.8011 34.6437C30.7253 35.8281 29.7426 36.75 28.5557 36.75H12.7502C11.5075 36.75 10.5002 35.7426 10.5002 34.5C10.5002 34.4203 10.5044 34.3406 10.5129 34.2614L12.3512 17.0253C12.3919 16.644 12.7136 16.3548 13.097 16.3548L16.3442 16.3545L16.3447 13.5C16.3447 11.0147 18.3594 9 20.8447 9C21.6898 9 22.4805 9.23296 23.1561 9.63816L23.0946 9.60197C23.7567 9.21912 24.5251 9 25.3447 9ZM34.3334 16.3548C34.6134 16.3548 34.8484 16.5661 34.8781 16.8446L36.8773 35.5886C36.8813 35.6256 36.8832 35.6628 36.8832 35.7C36.8832 36.2799 36.4131 36.75 35.8332 36.75H33.5743C33.5505 36.75 33.5267 36.7492 33.5029 36.7476C32.9243 36.7081 32.4873 36.2071 32.5268 35.6286L33.8073 16.8462C33.8262 16.5696 34.0561 16.3548 34.3334 16.3548ZM20.8964 10.8541C19.5377 10.8541 18.4227 11.8975 18.3091 13.2268L18.2996 13.4509L18.2987 16.3545H23.4932L23.4932 13.4509C23.4932 12.0167 22.3306 10.8541 20.8964 10.8541ZM25.3964 10.8541C25.1093 10.8541 24.8332 10.9006 24.575 10.9867L24.6441 11.0876C25.0877 11.7848 25.3447 12.6124 25.3447 13.5L25.3442 16.3545H27.9932L27.9932 13.4509C27.9932 12.0167 26.8306 10.8541 25.3964 10.8541Z" fill="url(#paint1_linear_0_698)"/>
</g>
<defs>
<linearGradient id="paint0_linear_0_698" x1="24.0002" y1="2" x2="24.0002" y2="46" gradientUnits="userSpaceOnUse">
<stop stop-color="#F45FF0"/>
<stop offset="0.817708" stop-color="#C400B4"/>
</linearGradient>
<linearGradient id="paint1_linear_0_698" x1="23.6917" y1="9" x2="23.6917" y2="36.75" gradientUnits="userSpaceOnUse">
<stop offset="0.6875" stop-color="white"/>
<stop offset="1" stop-color="#FF9EFC"/>
</linearGradient>
<clipPath id="clip0_0_698">
<rect width="48" height="48" fill="white"/>
</clipPath>
</defs>
</svg>
