<svg id="Layer_1" data-name="Layer 1" xmlns="http://www.w3.org/2000/svg" width="180mm" height="180mm" viewBox="0 0 510.2362 510.2362"><path d="M426.47,41.2461H83.7658a42.52,42.52,0,0,0-42.52,42.52V426.47a42.52,42.52,0,0,0,42.52,42.52H426.47a42.52,42.52,0,0,0,42.52-42.52V83.7658A42.52,42.52,0,0,0,426.47,41.2461ZM224.3135,437.6352c-29.3342,0-53.146-24.4364-53.146-54.5249s23.8118-54.5166,53.146-54.5166c29.3295,0,53.14,24.429,53.14,54.5166S253.643,437.6352,224.3135,437.6352Zm67.5508-179.4071c-5.7221,22.7485-25.723,38.6442-48.6274,38.6442H195.9148L252.8382,72.6009h86.23Z" fill="#22a958" fill-rule="evenodd"/></svg>