<svg width="48" height="48" viewBox="0 0 48 48" fill="none" xmlns="http://www.w3.org/2000/svg">
<g clip-path="url(#clip0_0_621)">
<rect x="2.00018" y="2" width="44" height="44" rx="10" fill="url(#paint0_linear_0_621)"/>
<path fill-rule="evenodd" clip-rule="evenodd" d="M39.0003 20.25C40.1701 20.25 40.4934 20.5869 40.5002 21.75V23.2499C40.5002 24.4197 40.1701 24.7498 39.0003 24.7498H37.5004L35.1921 36.1286C34.9351 37.4337 34.238 38.249 33.0006 38.249H15.0016C13.7642 38.249 12.5802 37.4337 12.3233 36.1286L10.5018 24.7498H9.00193C7.83212 24.7498 7.50201 24.4197 7.50201 23.2499V21.75C7.50201 20.5801 7.83212 20.25 9.00193 20.25H39.0003ZM17.9898 26.4253C17.3474 26.4253 16.7929 26.9392 16.7929 27.6221V34.3164C16.7929 34.9588 17.3068 35.5133 17.9898 35.5133C18.6321 35.5133 19.1866 34.9994 19.1866 34.3164V27.6221C19.1866 26.9797 18.6727 26.4253 17.9898 26.4253ZM21.8305 26.4253C21.1881 26.4253 20.6337 26.9392 20.6337 27.6221V34.3164C20.6337 34.9588 21.1476 35.5133 21.8305 35.5133C22.4729 35.5133 23.0274 34.9994 23.0274 34.3164V27.6221C23.0274 26.9797 22.4729 26.4253 21.8305 26.4253ZM25.6916 26.4253C25.0492 26.4253 24.4947 26.9797 24.4947 27.6221V34.3164C24.4947 34.9994 25.0492 35.5133 25.6916 35.5133C26.3745 35.5133 26.8884 34.9588 26.8884 34.3164V27.6221C26.8884 26.9392 26.334 26.4253 25.6916 26.4253ZM29.5324 26.4253C28.8494 26.4253 28.3355 26.9797 28.3355 27.6221V34.3164C28.3355 34.9994 28.89 35.5133 29.5324 35.5133C30.2153 35.5133 30.7292 34.9588 30.7292 34.3164V27.6221C30.7292 26.9392 30.1747 26.4253 29.5324 26.4253ZM20.1997 10.3847C20.5445 9.7897 21.3086 9.5936 21.9037 9.93846C22.4987 10.2833 22.6948 11.0474 22.35 11.6425L15.8069 19.2349H12.9195L20.1997 10.3847ZM26.0512 9.93846C26.6462 9.58684 27.4103 9.7897 27.7552 10.3847L35.0353 19.2281H32.148L25.6049 11.6425C25.2533 11.0474 25.4561 10.2833 26.0512 9.93846Z" fill="url(#paint1_linear_0_621)"/>
</g>
<defs>
<linearGradient id="paint0_linear_0_621" x1="24.0002" y1="2" x2="24.0002" y2="46" gradientUnits="userSpaceOnUse">
<stop stop-color="#7A87FF"/>
<stop offset="1" stop-color="#3142E5"/>
</linearGradient>
<linearGradient id="paint1_linear_0_621" x1="24.0011" y1="9.76566" x2="24.0011" y2="38.249" gradientUnits="userSpaceOnUse">
<stop offset="0.6763" stop-color="white"/>
<stop offset="1" stop-color="#7A87FF"/>
</linearGradient>
<clipPath id="clip0_0_621">
<rect width="48" height="48" fill="white"/>
</clipPath>
</defs>
</svg>
