<svg width="48" height="48" viewBox="0 0 48 48" fill="none" xmlns="http://www.w3.org/2000/svg">
<g clip-path="url(#clip0_0_607)">
<rect x="2.00012" y="2" width="44" height="44" rx="10" fill="url(#paint0_linear_0_607)"/>
<path fill-rule="evenodd" clip-rule="evenodd" d="M29.431 11.55C31.7726 11.55 33.8415 13.0426 34.5919 15.2391L34.6756 15.506L35.6876 19.0499H37.6362C38.3893 19.0499 38.9998 19.6605 38.9998 20.4136C38.9998 21.1667 38.3893 21.7772 37.6362 21.7772L37.3882 21.7764C38.3235 22.5447 38.9114 23.6733 38.9906 24.9012L38.9998 25.1862V33.368H38.318V34.7316C38.318 35.4309 37.7916 36.0073 37.1134 36.086L36.9544 36.0952H34.9089C34.2096 36.0952 33.6333 35.5688 33.5545 34.8906L33.5453 34.7316V33.368H14.4546V34.7316C14.4546 35.4309 13.9282 36.0073 13.25 36.086L13.091 36.0952H11.0456C10.3462 36.0952 9.76988 35.5688 9.69111 34.8906L9.68193 34.7316V33.368H9.00012V25.1862L9.0088 24.9091C9.08601 23.6781 9.67445 22.5463 10.6117 21.7764L10.3637 21.7772C9.61064 21.7772 9.00012 21.1667 9.00012 20.4136C9.00012 19.7142 9.52653 19.1379 10.2047 19.0591L10.3637 19.0499H12.3124L13.3243 15.506C13.9676 13.2545 15.9712 11.6753 18.2893 11.5571L18.5689 11.55H29.431ZM36.9544 25.1862H33.3357C32.2269 25.1862 31.2299 25.8613 30.8181 26.8908L30.5103 27.6603C30.4781 27.7408 30.4615 27.8267 30.4615 27.9135C30.4615 28.29 30.7668 28.5953 31.1433 28.5953H36.9544C37.3309 28.5953 37.6362 28.29 37.6362 27.9135V25.868C37.6362 25.4915 37.3309 25.1862 36.9544 25.1862ZM14.6642 25.1862H11.0456L10.923 25.1972C10.6049 25.2549 10.3637 25.5333 10.3637 25.868V27.9135L10.3747 28.036C10.4325 28.3541 10.7108 28.5953 11.0456 28.5953H16.8566L16.9792 28.5843C17.2972 28.5266 17.5384 28.2482 17.5384 27.9135C17.5384 27.8267 17.5219 27.7408 17.4897 27.6603L17.1819 26.8908L17.0918 26.6897C16.6366 25.7743 15.6991 25.1862 14.6642 25.1862ZM27.6186 25.1862H20.3813C20.2232 25.1862 20.0665 25.2164 19.9197 25.2751C19.2823 25.5301 18.9723 26.2534 19.2273 26.8908C19.6391 27.9202 20.6361 28.5953 21.7449 28.5953H26.255C27.3638 28.5953 28.3608 27.9202 28.7726 26.8908C28.8314 26.7439 28.8615 26.5873 28.8615 26.4292C28.8615 25.7427 28.3051 25.1862 27.6186 25.1862ZM30.4974 14.2427H17.3812C16.6821 14.2427 15.8928 14.7718 15.6273 15.4186L14.4546 21.0954H33.5453L32.2513 15.4186C31.9858 14.7718 31.1966 14.2427 30.4974 14.2427Z" fill="url(#paint1_linear_0_607)"/>
</g>
<defs>
<linearGradient id="paint0_linear_0_607" x1="24.0001" y1="2" x2="24.0001" y2="46" gradientUnits="userSpaceOnUse">
<stop stop-color="#00FF89"/>
<stop offset="1" stop-color="#00B964"/>
</linearGradient>
<linearGradient id="paint1_linear_0_607" x1="24" y1="11.55" x2="24" y2="36.0952" gradientUnits="userSpaceOnUse">
<stop offset="0.642919" stop-color="white"/>
<stop offset="1" stop-color="#6EF7B7"/>
</linearGradient>
<clipPath id="clip0_0_607">
<rect width="48" height="48" fill="white"/>
</clipPath>
</defs>
</svg>
