<svg width="48" height="48" viewBox="0 0 48 48" fill="none" xmlns="http://www.w3.org/2000/svg">
<g clip-path="url(#clip0_0_663)">
<rect x="2.00018" y="2" width="44" height="44" rx="10" fill="url(#paint0_linear_0_663)"/>
<path fill-rule="evenodd" clip-rule="evenodd" d="M24.0002 9C17.6844 9 11.3686 9.7895 11.3686 15.3158V30.3157C11.3686 33.3631 13.8475 35.8421 16.8949 35.8421L14.8056 37.9314C14.6269 38.1101 14.5265 38.3525 14.5265 38.6052C14.5265 38.8233 14.7033 39 14.9213 39H17.3935C17.8123 39 18.2139 38.8336 18.51 38.5375L21.2055 35.8421H27.1581L29.8535 38.5375C30.1496 38.8336 30.5512 39 30.97 39H33.0791C33.2971 39 33.4738 38.8232 33.4738 38.6052C33.4738 38.3524 33.3734 38.11 33.1947 37.9313L31.1054 35.842C34.1528 35.842 36.6318 33.3631 36.6318 30.3157V15.3158C36.6318 9.7895 30.9791 9 24.0002 9ZM16.8949 32.6842C15.5844 32.6842 14.5265 31.6263 14.5265 30.3158C14.5265 29.0052 15.5844 27.9473 16.8949 27.9473C18.2055 27.9473 19.2634 29.0052 19.2634 30.3158C19.2634 31.6263 18.2054 32.6842 16.8949 32.6842ZM14.5265 20.0526V16.8947C14.5265 16.0227 15.2334 15.3158 16.1055 15.3158H20.8423C21.7143 15.3158 22.4213 16.0227 22.4213 16.8947V20.0526C22.4213 20.9247 21.7143 21.6316 20.8423 21.6316H16.1055C15.2334 21.6316 14.5265 20.9247 14.5265 20.0526ZM31.1054 32.6842C29.7949 32.6842 28.737 31.6263 28.737 30.3158C28.737 29.0052 29.7949 27.9473 31.1054 27.9473C32.416 27.9473 33.4739 29.0052 33.4739 30.3158C33.4739 31.6263 32.4159 32.6842 31.1054 32.6842ZM25.5791 20.0526V16.8947C25.5791 16.0227 26.286 15.3158 27.158 15.3158H31.8949C32.7669 15.3158 33.4738 16.0227 33.4738 16.8947V20.0526C33.4738 20.9247 32.7669 21.6316 31.8949 21.6316H27.158C26.286 21.6316 25.5791 20.9247 25.5791 20.0526Z" fill="url(#paint1_linear_0_663)"/>
</g>
<defs>
<linearGradient id="paint0_linear_0_663" x1="24.0002" y1="2" x2="24.0002" y2="46" gradientUnits="userSpaceOnUse">
<stop stop-color="#FF9E9C"/>
<stop offset="1" stop-color="#F80400"/>
</linearGradient>
<linearGradient id="paint1_linear_0_663" x1="24.0002" y1="9" x2="24.0002" y2="39" gradientUnits="userSpaceOnUse">
<stop offset="0.677083" stop-color="white"/>
<stop offset="1" stop-color="#FF9D9B"/>
</linearGradient>
<clipPath id="clip0_0_663">
<rect width="48" height="48" fill="white"/>
</clipPath>
</defs>
</svg>
